<?xml version="1.0" encoding="UTF-8"?>
<svg width="111px" height="22px" viewBox="0 0 111 22" version="1.1" xmlns="http://www.w3.org/2000/svg" xmlns:xlink="http://www.w3.org/1999/xlink">
    <!-- Generator: Sketch 53 (72520) - https://sketchapp.com -->
    <title>Group 10 Copy</title>
    <desc>Created with Sketch.</desc>
    <g id="Page-1" stroke="none" stroke-width="1" fill="none" fill-rule="evenodd">
        <g id="Group-10-Copy" transform="translate(-0.000000, 0.000000)">
            <g id="Group-3" transform="translate(33.000000, 3.000000)" fill="#FFFFFF" fill-rule="nonzero">
                <path d="M0.455078125,15 L0.455078125,0.68359375 L11.0703125,0.68359375 L11.0703125,3.10546875 L3.34570313,3.10546875 L3.34570313,6.27929688 L10.5332031,6.27929688 L10.5332031,8.69140625 L3.34570313,8.69140625 L3.34570313,12.5878906 L11.34375,12.5878906 L11.34375,15 L0.455078125,15 Z M20.5527344,18.9453125 L20.5527344,13.7304688 C20.1946597,14.1927106 19.7487006,14.5589179 19.2148438,14.8291016 C18.6809869,15.0992852 18.1048208,15.234375 17.4863281,15.234375 C16.3079368,15.234375 15.3378944,14.7916711 14.5761719,13.90625 C13.6777299,12.8710886 13.2285156,11.4681078 13.2285156,9.69726562 C13.2285156,8.03059063 13.6500609,6.7301479 14.4931641,5.79589844 C15.3362672,4.86164897 16.3828063,4.39453125 17.6328125,4.39453125 C18.3229201,4.39453125 18.9202449,4.54101416 19.4248047,4.83398438 C19.9293645,5.12695459 20.3769512,5.5696585 20.7675781,6.16210938 L20.7675781,4.62890625 L23.296875,4.62890625 L23.296875,18.9453125 L20.5527344,18.9453125 Z M20.640625,9.6875 C20.640625,8.62629678 20.4241558,7.83691665 19.9912109,7.31933594 C19.5582661,6.80175522 19.0162793,6.54296875 18.3652344,6.54296875 C17.7011686,6.54296875 17.1461611,6.80663799 16.7001953,7.33398438 C16.2542295,7.86133076 16.03125,8.69791094 16.03125,9.84375 C16.03125,10.9830786 16.2460916,11.8050105 16.6757812,12.3095703 C17.1054709,12.8141301 17.6360646,13.0664062 18.2675781,13.0664062 C18.8990917,13.0664062 19.4524716,12.783206 19.9277344,12.2167969 C20.4029972,11.6503878 20.640625,10.8072973 20.640625,9.6875 Z M32.8183594,15 L32.8183594,13.4472656 C32.4407533,14.0006538 31.944339,14.4368474 31.3291016,14.7558594 C30.7138641,15.0748714 30.0644565,15.234375 29.3808594,15.234375 C28.6842413,15.234375 28.0592476,15.0813817 27.5058594,14.7753906 C26.9524712,14.4693995 26.5520846,14.0397163 26.3046875,13.4863281 C26.0572904,12.9329399 25.9335938,12.1679736 25.9335938,11.1914062 L25.9335938,4.62890625 L28.6777344,4.62890625 L28.6777344,9.39453125 C28.6777344,10.8528719 28.7281896,11.7464176 28.8291016,12.0751953 C28.9300135,12.403973 29.113931,12.6643871 29.3808594,12.8564453 C29.6477878,13.0485036 29.9863261,13.1445312 30.3964844,13.1445312 C30.8652367,13.1445312 31.2851544,13.0159518 31.65625,12.7587891 C32.0273456,12.5016263 32.2812493,12.1826191 32.4179688,11.8017578 C32.5546882,11.4208965 32.6230469,10.4882887 32.6230469,9.00390625 L32.6230469,4.62890625 L35.3671875,4.62890625 L35.3671875,15 L32.8183594,15 Z M38.2089844,3.22265625 L38.2089844,0.68359375 L40.953125,0.68359375 L40.953125,3.22265625 L38.2089844,3.22265625 Z M38.2089844,15 L38.2089844,4.62890625 L40.953125,4.62890625 L40.953125,15 L38.2089844,15 Z M53.1992188,15 L50.4550781,15 L50.4550781,9.70703125 C50.4550781,8.58723398 50.396485,7.86295737 50.2792969,7.53417969 C50.1621088,7.205402 49.971681,6.9498707 49.7080078,6.76757812 C49.4443346,6.58528555 49.126955,6.49414062 48.7558594,6.49414062 C48.2805966,6.49414062 47.8541686,6.62434766 47.4765625,6.88476562 C47.0989564,7.14518359 46.84017,7.49023223 46.7001953,7.91992188 C46.5602207,8.34961152 46.4902344,9.14387441 46.4902344,10.3027344 L46.4902344,15 L43.7460938,15 L43.7460938,4.62890625 L46.2949219,4.62890625 L46.2949219,6.15234375 C47.1998743,4.98046289 48.3391858,4.39453125 49.7128906,4.39453125 C50.3183624,4.39453125 50.8717423,4.50357964 51.3730469,4.72167969 C51.8743515,4.93977974 52.2535794,5.21809727 52.5107422,5.55664062 C52.7679049,5.89518398 52.9469396,6.27929473 53.0478516,6.70898438 C53.1487635,7.13867402 53.1992188,7.75390225 53.1992188,8.5546875 L53.1992188,15 Z M55.3476562,9.66796875 C55.3476562,8.75650586 55.5722634,7.87435322 56.0214844,7.02148438 C56.4707054,6.16861553 57.1070922,5.51758037 57.9306641,5.06835938 C58.7542359,4.61913838 59.673823,4.39453125 60.6894531,4.39453125 C62.2584714,4.39453125 63.5442658,4.90396626 64.546875,5.92285156 C65.5494842,6.94173687 66.0507812,8.22915889 66.0507812,9.78515625 C66.0507812,11.3541745 65.5446014,12.6546172 64.5322266,13.6865234 C63.5198517,14.7184296 62.2454504,15.234375 60.7089844,15.234375 C59.7584588,15.234375 58.8518923,15.0195334 57.9892578,14.5898438 C57.1266233,14.1601541 56.4707054,13.5302776 56.0214844,12.7001953 C55.5722634,11.870113 55.3476562,10.859381 55.3476562,9.66796875 Z M58.1601562,9.81445312 C58.1601562,10.8431041 58.4042944,11.6308566 58.8925781,12.1777344 C59.3808618,12.7246121 59.9830693,12.9980469 60.6992188,12.9980469 C61.4153682,12.9980469 62.0159481,12.7246121 62.5009766,12.1777344 C62.986005,11.6308566 63.2285156,10.8365938 63.2285156,9.79492188 C63.2285156,8.7792918 62.986005,7.99804961 62.5009766,7.45117188 C62.0159481,6.90429414 61.4153682,6.63085938 60.6992188,6.63085938 C59.9830693,6.63085938 59.3808618,6.90429414 58.8925781,7.45117188 C58.4042944,7.99804961 58.1601562,8.78580215 58.1601562,9.81445312 Z M66.8808594,15 L70.6210938,9.65820312 L67.0371094,4.62890625 L70.3867188,4.62890625 L72.2226562,7.48046875 L74.15625,4.62890625 L77.3789062,4.62890625 L73.8632812,9.54101562 L77.7011719,15 L74.3320312,15 L72.2226562,11.7871094 L70.09375,15 L66.8808594,15 Z" id="Equinox"></path>
            </g>
            <g id="Group-6">
                <g id="Group-7">
                    <circle id="Oval" fill="#08D0DE" cx="11" cy="11" r="11"></circle>
                    <path d="M16,5.8328202 L11.4857892,10.5 L15.8800781,15.2807903 C14.7245459,16.348105 13.1811302,17 11.4857892,17 C7.90378674,17 5,14.0898509 5,10.5 C5,6.91014913 7.90378674,4 11.4857892,4 C13.2404805,4 14.8324231,4.69833681 16,5.8328202 Z" id="Combined-Shape" fill="#FFFFFF"></path>
                </g>
            </g>
        </g>
    </g>
</svg>